# xmcd
#
# Track frame offsets: 
#        150
#        11481
#        23183
#        35596
#        47625
#        61932
#        74166
#        84982
#        95882
#        109108
#        122297
#        135615
#        146549
#        157654
#        169098
#        182517
#        196227
#        209042
#        218953
#        231189
#        243633
#        254463
#        267572
#        279073
#        292502
#        305184
#
# Disc length: 4223 seconds
#
# Revision: 0
# Processed by: cddbd v1.5.2PL0 Copyright (c) Steve Scherf et al.
# Submitted via: ExactAudioCopyFreeDBPlugin 1.0
#
DISCID=7b107d1a
DTITLE=Hank Williams - The Complete Singles As and Bs 1947-55
DYEAR=2016
DGENRE=Country
TTITLE0=Nobody's Lonesome For Me
TTITLE1=Dear John
TTITLE2=Cold, Cold Heart
TTITLE3=Just Waitin'
TTITLE4=Men With Broken Hearts
TTITLE5=Howlin' At The Moon
TTITLE6=I Can't Help It
TTITLE7=My Heart Would Know
TTITLE8=Hey Good Lookin'
TTITLE9=I've Been Down That Road Before
TTITLE10=I Dreamed About Mama Last Night
TTITLE11=(I Heard That) Lonesome Whistle
TTITLE12=Crazy Heart
TTITLE13=Baby, We're Really In Love
TTITLE14=I'd Still Want You
TTITLE15=Ramblin' Man
TTITLE16=Pictures From Life's Other Side
TTITLE17=Honky Tonk Blues
TTITLE18=I'm Sorry For You, My Friend
TTITLE19=Half As Much
TTITLE20=Let's Turn Back The Years
TTITLE21=Jambalaya (On The Bayou)
TTITLE22=Window Shopping
TTITLE23=Be Careful Of The Stones That You Throw
TTITLE24=Why Don't You Make Up Your Mind?
TTITLE25=Settin' The Woods On Fire
EXTD=
EXTT0=
EXTT1=
EXTT2=
EXTT3=
EXTT4=
EXTT5=
EXTT6=
EXTT7=
EXTT8=
EXTT9=
EXTT10=
EXTT11=
EXTT12=
EXTT13=
EXTT14=
EXTT15=
EXTT16=
EXTT17=
EXTT18=
EXTT19=
EXTT20=
EXTT21=
EXTT22=
EXTT23=
EXTT24=
EXTT25=
PLAYORDER=
